HIERARCHY
ROOT Hips
{
	OFFSET -0.001795 -0.223333 0.028219
	CHANNELS 6 Xposition Yposition Zposition Zrotation Yrotation Xrotation 
	JOINT LeftUpLeg
	{
		OFFSET 0.069520 -0.091406 -0.006815
		CHANNELS 3 Zrotation Yrotation Xrotation
		JOINT LeftLeg
		{
			OFFSET 0.034277 -0.375199 -0.004496
			CHANNELS 3 Zrotation Yrotation Xrotation
			JOINT LeftFoot
			{
				OFFSET -0.013596 -0.397961 -0.043693
				CHANNELS 3 Zrotation Yrotation Xrotation
				JOINT LeftToe
				{
					OFFSET 0.026358 -0.055791 0.119288
					CHANNELS 3 Zrotation Yrotation Xrotation
					End Site
					{
						OFFSET 0.000000 0.000000 0.000000
					}
				}
			}
		}
	}
	JOINT RightUpLeg
	{
		OFFSET -0.067670 -0.090522 -0.004320
		CHANNELS 3 Zrotation Yrotation Xrotation
		JOINT RightLeg
		{
			OFFSET -0.038290 -0.382569 -0.008850
			CHANNELS 3 Zrotation Yrotation Xrotation
			JOINT RightFoot
			{
				OFFSET 0.015774 -0.398415 -0.042312
				CHANNELS 3 Zrotation Yrotation Xrotation
				JOINT RightToe
				{
					OFFSET -0.025372 -0.048144 0.123348
					CHANNELS 3 Zrotation Yrotation Xrotation
					End Site
					{
						OFFSET 0.000000 0.000000 0.000000
					}
				}
			}
		}
	}
	JOINT Spine
	{
		OFFSET -0.002533 0.108963 -0.026696
		CHANNELS 3 Zrotation Yrotation Xrotation
		JOINT Spine1
		{
			OFFSET 0.005487 0.135180 0.001092
			CHANNELS 3 Zrotation Yrotation Xrotation
			JOINT Spine2
			{
				OFFSET 0.001457 0.052922 0.025425
				CHANNELS 3 Zrotation Yrotation Xrotation
				JOINT Neck
				{
					OFFSET -0.002778 0.213870 -0.042857
					CHANNELS 3 Zrotation Yrotation Xrotation
					JOINT Head
					{
						OFFSET 0.005152 0.064970 0.051349
						CHANNELS 3 Zrotation Yrotation Xrotation
						End Site
						{
							OFFSET 0.000000 0.000000 0.000000
						}
					}
				}
				JOINT LeftShoulder
				{
					OFFSET 0.078845 0.121749 -0.034090
					CHANNELS 3 Zrotation Yrotation Xrotation
					JOINT LeftArm
					{
						OFFSET 0.090977 0.030469 -0.008868
						CHANNELS 3 Zrotation Yrotation Xrotation
						JOINT LeftForeArm
						{
							OFFSET 0.259612 -0.012772 -0.027456
							CHANNELS 3 Zrotation Yrotation Xrotation
							JOINT LeftHand
							{
								OFFSET 0.249234 0.008986 -0.001171
								CHANNELS 3 Zrotation Yrotation Xrotation
								End Site
								{
									OFFSET 0.000000 0.000000 0.000000
								}
							}
						}
					}
				}
				JOINT RightShoulder
				{
					OFFSET -0.081759 0.118833 -0.038615
					CHANNELS 3 Zrotation Yrotation Xrotation
					JOINT RightArm
					{
						OFFSET -0.096012 0.032551 -0.009143
						CHANNELS 3 Zrotation Yrotation Xrotation
						JOINT RightForeArm
						{
							OFFSET -0.253742 -0.013329 -0.021401
							CHANNELS 3 Zrotation Yrotation Xrotation
							JOINT RightHand
							{
								OFFSET -0.255298 0.007772 -0.005559
								CHANNELS 3 Zrotation Yrotation Xrotation
								End Site
								{
									OFFSET 0.000000 0.000000 0.000000
								}
							}
						}
					}
				}
			}
		}
	}
}
MOTION
Frames: 5
Frame Time: 0.050000
0.733221 0.940750 -0.510146 179.872219 55.207246 174.398624 0.819529 -1.306096 -3.452051 -1.355791 -2.296327 5.266816 13.429409 0.111346 9.160413 0.000000 0.000000 0.000000 -2.129923 -5.240812 -10.164125 -29.525986 -24.007962 51.600076 28.873651 24.549709 10.331908 0.000000 0.000000 0.000000 -1.822020 -2.993100 15.869377 -4.289649 -1.200534 -8.211463 3.632419 7.285891 10.789693 4.013366 5.901595 -20.094284 0.000000 0.000000 0.000000 -15.719588 -6.894896 -30.366367 -43.788639 16.109116 -7.088881 -24.387890 -22.061550 1.245874 0.000000 0.000000 0.000000 14.029778 -7.700266 11.275582 49.209542 30.741957 10.916653 3.018622 42.305436 5.691203 0.000000 0.000000 0.000000 
0.749289 0.944272 -0.532060 -179.186140 55.824435 175.206083 0.978140 -1.705717 -0.840488 -1.658278 -2.228787 4.739359 14.236257 0.701421 8.559406 0.000000 0.000000 0.000000 -2.060562 -7.865153 -16.955876 -42.650931 -22.458696 62.968528 35.952154 30.341221 21.058274 0.000000 0.000000 0.000000 -1.813058 -3.403098 16.826768 -4.250498 -0.690752 -9.245033 3.159974 6.531066 11.400970 4.412708 6.492537 -21.488339 0.000000 0.000000 0.000000 -15.476338 -7.266212 -29.320430 -43.156487 13.478905 -5.991978 -24.532436 -23.133168 1.455617 0.000000 0.000000 0.000000 14.460861 -8.046241 11.065628 49.311431 29.998429 10.313255 4.260237 41.266163 5.816938 0.000000 0.000000 0.000000 
0.767789 0.947873 -0.550870 -178.091398 55.241345 176.011437 0.778088 -2.223866 1.684310 -0.711048 -1.879898 3.637790 13.401349 -0.000812 7.772034 0.000000 0.000000 0.000000 -1.449707 -9.458517 -20.430495 -39.887981 -22.439303 61.741831 30.303659 28.712118 15.594352 0.000000 0.000000 0.000000 -2.069450 -3.659292 17.353575 -3.710892 -0.521988 -9.728241 2.717452 4.991390 11.335223 3.641140 7.162883 -22.571408 0.000000 0.000000 0.000000 -15.026643 -6.452757 -28.488765 -42.263017 11.244918 -5.261742 -26.626262 -25.289958 2.007674 0.000000 0.000000 0.000000 14.314107 -7.762834 10.918186 50.736616 28.983149 10.297182 4.436576 39.178979 5.136308 0.000000 0.000000 0.000000 
0.788802 0.950107 -0.568178 -177.083680 55.395073 177.279508 0.987705 -2.844744 3.728803 -0.078645 -1.633047 2.406161 13.807543 -0.165606 6.540375 0.000000 0.000000 0.000000 -0.074713 -9.816458 -22.619477 -28.970809 -21.322780 51.807635 23.022622 22.534214 8.925806 0.000000 0.000000 0.000000 -2.091511 -3.599382 17.306994 -3.970264 -0.466090 -9.929145 3.108154 4.299129 11.898587 3.768859 7.352638 -22.757051 0.000000 0.000000 0.000000 -14.627285 -5.841403 -28.155272 -42.840845 8.321775 -4.488014 -26.287517 -26.347224 2.032082 0.000000 0.000000 0.000000 14.359535 -8.143911 10.535356 51.267387 27.793814 9.756265 5.328634 37.814242 5.095508 0.000000 0.000000 0.000000 
0.811789 0.949463 -0.584083 -176.821776 55.398484 178.559182 0.526854 -3.364243 5.729293 0.977584 -1.360542 0.514819 12.968570 -0.514026 5.926204 0.000000 0.000000 0.000000 0.902135 -9.679489 -23.522792 -14.652547 -16.853853 36.460343 14.603539 12.206351 3.764625 0.000000 0.000000 0.000000 -2.055107 -3.227855 16.420766 -3.575494 -0.348694 -10.267227 2.507720 3.148012 12.122922 3.595280 7.786001 -24.053912 0.000000 0.000000 0.000000 -13.780886 -5.503229 -27.089407 -43.363963 7.271510 -4.602944 -26.793238 -28.885204 2.181521 0.000000 0.000000 0.000000 14.212675 -8.352009 10.117273 52.778906 25.867644 9.494866 6.028645 35.996878 4.793360 0.000000 0.000000 0.000000 
